<mxfile host="app.diagrams.net" agent="Mozilla/5.0 (Windows NT 10.0; Win64; x64) AppleWebKit/537.36 (KHTML, like Gecko) Chrome/132.0.0.0 Safari/537.36" version="26.0.6">
  <diagram name="Page-1" id="19d8dcba-68ad-dc05-1034-9cf7b2a963f6">
    <mxGraphModel dx="1695" dy="905" grid="0" gridSize="10" guides="1" tooltips="1" connect="1" arrows="1" fold="1" page="1" pageScale="1" pageWidth="1100" pageHeight="850" background="none" math="0" shadow="0">
      <root>
        <mxCell id="0" />
        <mxCell id="1" parent="0" />
        <mxCell id="6257edae8c83ed4a-9" value="Ensure Long-Term Property Value" style="whiteSpace=wrap;html=1;rounded=0;shadow=0;comic=0;strokeWidth=2;fontFamily=Verdana;align=center;fontSize=12;fontStyle=1;strokeColor=none;" parent="1" vertex="1">
          <mxGeometry x="238" y="296" width="200" height="50" as="geometry" />
        </mxCell>
        <mxCell id="6257edae8c83ed4a-21" value="Future government development plans" style="whiteSpace=wrap;html=1;rounded=0;shadow=0;comic=0;strokeWidth=2;fontFamily=Verdana;align=center;fontSize=12;fontStyle=1;strokeColor=none;" parent="1" vertex="1">
          <mxGeometry x="238" y="406" width="200" height="50" as="geometry" />
        </mxCell>
        <mxCell id="6257edae8c83ed4a-12" value="Optimize Location" style="whiteSpace=wrap;html=1;rounded=0;shadow=0;comic=0;strokeWidth=2;fontFamily=Verdana;align=center;fontSize=12;fontStyle=1;strokeColor=none;" parent="1" vertex="1">
          <mxGeometry x="483" y="296" width="200" height="50" as="geometry" />
        </mxCell>
        <mxCell id="6257edae8c83ed4a-1" value="Maximize Value from HDB Purchase" style="whiteSpace=wrap;html=1;rounded=0;shadow=0;comic=0;strokeWidth=2;fontFamily=Verdana;align=center;fontSize=12;fontStyle=1;strokeColor=none;" parent="1" vertex="1">
          <mxGeometry x="606" y="186" width="200" height="50" as="geometry" />
        </mxCell>
        <mxCell id="218ae93e1282097f-2" value="Minimize Waiting time" style="whiteSpace=wrap;html=1;rounded=0;shadow=0;comic=0;strokeWidth=2;fontFamily=Verdana;align=center;fontSize=12;fontStyle=1;strokeColor=none;" parent="1" vertex="1">
          <mxGeometry x="678" y="296" width="200" height="50" as="geometry" />
        </mxCell>
        <mxCell id="x4HcTvrEBQ7sZUDVJvWk-5" value="Maximize amenities" style="whiteSpace=wrap;html=1;rounded=0;shadow=0;comic=0;strokeWidth=2;fontFamily=Verdana;align=center;fontSize=12;fontStyle=1;strokeColor=none;" parent="1" vertex="1">
          <mxGeometry x="472" y="406" width="104" height="50" as="geometry" />
        </mxCell>
        <mxCell id="x4HcTvrEBQ7sZUDVJvWk-7" value="Minimize Environmental Disruptions" style="whiteSpace=wrap;html=1;rounded=0;shadow=0;comic=0;strokeWidth=2;fontFamily=Verdana;align=center;fontSize=12;fontStyle=1;strokeColor=none;" parent="1" vertex="1">
          <mxGeometry x="598" y="406" width="80" height="50" as="geometry" />
        </mxCell>
        <mxCell id="x4HcTvrEBQ7sZUDVJvWk-34" value="Minimize depreciation&amp;nbsp;" style="whiteSpace=wrap;html=1;rounded=0;shadow=0;comic=0;strokeWidth=2;fontFamily=Verdana;align=center;fontSize=12;fontStyle=1;strokeColor=none;" parent="1" vertex="1">
          <mxGeometry x="134" y="406" width="104" height="50" as="geometry" />
        </mxCell>
        <mxCell id="x4HcTvrEBQ7sZUDVJvWk-51" value="" style="endArrow=none;html=1;rounded=0;exitX=0.5;exitY=0;exitDx=0;exitDy=0;entryX=0.5;entryY=1;entryDx=0;entryDy=0;edgeStyle=orthogonalEdgeStyle;" parent="1" source="218ae93e1282097f-2" target="6257edae8c83ed4a-1" edge="1">
          <mxGeometry width="50" height="50" relative="1" as="geometry">
            <mxPoint x="796" y="436" as="sourcePoint" />
            <mxPoint x="586" y="256" as="targetPoint" />
          </mxGeometry>
        </mxCell>
        <mxCell id="x4HcTvrEBQ7sZUDVJvWk-52" value="" style="endArrow=none;html=1;rounded=0;exitX=0.5;exitY=0;exitDx=0;exitDy=0;entryX=0.5;entryY=1;entryDx=0;entryDy=0;edgeStyle=orthogonalEdgeStyle;" parent="1" source="6257edae8c83ed4a-9" target="6257edae8c83ed4a-1" edge="1">
          <mxGeometry width="50" height="50" relative="1" as="geometry">
            <mxPoint x="866" y="306" as="sourcePoint" />
            <mxPoint x="593" y="246" as="targetPoint" />
          </mxGeometry>
        </mxCell>
        <mxCell id="x4HcTvrEBQ7sZUDVJvWk-54" value="" style="endArrow=none;html=1;rounded=0;exitX=0.5;exitY=0;exitDx=0;exitDy=0;entryX=0.5;entryY=1;entryDx=0;entryDy=0;edgeStyle=orthogonalEdgeStyle;" parent="1" source="6257edae8c83ed4a-12" target="6257edae8c83ed4a-1" edge="1">
          <mxGeometry width="50" height="50" relative="1" as="geometry">
            <mxPoint x="348" y="306" as="sourcePoint" />
            <mxPoint x="593" y="246" as="targetPoint" />
          </mxGeometry>
        </mxCell>
        <mxCell id="x4HcTvrEBQ7sZUDVJvWk-55" value="" style="endArrow=none;html=1;rounded=0;exitX=0.5;exitY=0;exitDx=0;exitDy=0;entryX=0.5;entryY=1;entryDx=0;entryDy=0;edgeStyle=orthogonalEdgeStyle;" parent="1" source="x4HcTvrEBQ7sZUDVJvWk-34" target="6257edae8c83ed4a-9" edge="1">
          <mxGeometry width="50" height="50" relative="1" as="geometry">
            <mxPoint x="348" y="306" as="sourcePoint" />
            <mxPoint x="593" y="246" as="targetPoint" />
          </mxGeometry>
        </mxCell>
        <mxCell id="x4HcTvrEBQ7sZUDVJvWk-57" value="" style="endArrow=none;html=1;rounded=0;exitX=0.5;exitY=0;exitDx=0;exitDy=0;entryX=0.5;entryY=1;entryDx=0;entryDy=0;edgeStyle=orthogonalEdgeStyle;" parent="1" source="6257edae8c83ed4a-21" target="6257edae8c83ed4a-9" edge="1">
          <mxGeometry width="50" height="50" relative="1" as="geometry">
            <mxPoint x="196" y="416" as="sourcePoint" />
            <mxPoint x="348" y="356" as="targetPoint" />
          </mxGeometry>
        </mxCell>
        <mxCell id="x4HcTvrEBQ7sZUDVJvWk-59" value="" style="endArrow=none;html=1;rounded=0;exitX=0.5;exitY=0;exitDx=0;exitDy=0;entryX=0.5;entryY=1;entryDx=0;entryDy=0;edgeStyle=orthogonalEdgeStyle;" parent="1" source="x4HcTvrEBQ7sZUDVJvWk-5" target="6257edae8c83ed4a-12" edge="1">
          <mxGeometry width="50" height="50" relative="1" as="geometry">
            <mxPoint x="866" y="306" as="sourcePoint" />
            <mxPoint x="593" y="246" as="targetPoint" />
          </mxGeometry>
        </mxCell>
        <mxCell id="x4HcTvrEBQ7sZUDVJvWk-60" value="" style="endArrow=none;html=1;rounded=0;exitX=0.5;exitY=0;exitDx=0;exitDy=0;entryX=0.5;entryY=1;entryDx=0;entryDy=0;edgeStyle=orthogonalEdgeStyle;" parent="1" source="x4HcTvrEBQ7sZUDVJvWk-7" target="6257edae8c83ed4a-12" edge="1">
          <mxGeometry width="50" height="50" relative="1" as="geometry">
            <mxPoint x="534" y="416" as="sourcePoint" />
            <mxPoint x="593" y="356" as="targetPoint" />
          </mxGeometry>
        </mxCell>
        <mxCell id="x4HcTvrEBQ7sZUDVJvWk-61" value="&amp;lt;1 Month" style="whiteSpace=wrap;html=1;rounded=0;shadow=0;comic=0;strokeWidth=2;fontFamily=Verdana;align=center;fontSize=12;fontStyle=1;strokeColor=none;" parent="1" vertex="1">
          <mxGeometry x="738" y="397" width="80" height="50" as="geometry" />
        </mxCell>
        <mxCell id="x4HcTvrEBQ7sZUDVJvWk-62" value="" style="endArrow=none;html=1;rounded=0;exitX=0.5;exitY=0;exitDx=0;exitDy=0;edgeStyle=orthogonalEdgeStyle;entryX=0.5;entryY=1;entryDx=0;entryDy=0;" parent="1" source="x4HcTvrEBQ7sZUDVJvWk-61" target="218ae93e1282097f-2" edge="1">
          <mxGeometry width="50" height="50" relative="1" as="geometry">
            <mxPoint x="866" y="306" as="sourcePoint" />
            <mxPoint x="786" y="356" as="targetPoint" />
          </mxGeometry>
        </mxCell>
        <mxCell id="x4HcTvrEBQ7sZUDVJvWk-63" value="Minimize noise pollution" style="whiteSpace=wrap;html=1;rounded=0;shadow=0;comic=0;strokeWidth=2;fontFamily=Verdana;align=center;fontSize=12;fontStyle=1;strokeColor=none;" parent="1" vertex="1">
          <mxGeometry x="816" y="489" width="80" height="50" as="geometry" />
        </mxCell>
        <mxCell id="x4HcTvrEBQ7sZUDVJvWk-64" value="Minimize odor pollution" style="whiteSpace=wrap;html=1;rounded=0;shadow=0;comic=0;strokeWidth=2;fontFamily=Verdana;align=center;fontSize=12;fontStyle=1;strokeColor=none;" parent="1" vertex="1">
          <mxGeometry x="645" y="486" width="80" height="50" as="geometry" />
        </mxCell>
        <mxCell id="x4HcTvrEBQ7sZUDVJvWk-65" value="Minimize temperature of property" style="whiteSpace=wrap;html=1;rounded=0;shadow=0;comic=0;strokeWidth=2;fontFamily=Verdana;align=center;fontSize=12;fontStyle=1;strokeColor=none;" parent="1" vertex="1">
          <mxGeometry x="725" y="486" width="80" height="50" as="geometry" />
        </mxCell>
        <mxCell id="x4HcTvrEBQ7sZUDVJvWk-66" value="minimize distance to public transport" style="whiteSpace=wrap;html=1;rounded=0;shadow=0;comic=0;strokeWidth=2;fontFamily=Verdana;align=center;fontSize=12;fontStyle=1;strokeColor=none;" parent="1" vertex="1">
          <mxGeometry x="548" y="486" width="80" height="50" as="geometry" />
        </mxCell>
        <mxCell id="x4HcTvrEBQ7sZUDVJvWk-67" value="minimize distance to grocer" style="whiteSpace=wrap;html=1;rounded=0;shadow=0;comic=0;strokeWidth=2;fontFamily=Verdana;align=center;fontSize=12;fontStyle=1;strokeColor=none;" parent="1" vertex="1">
          <mxGeometry x="438" y="486" width="80" height="50" as="geometry" />
        </mxCell>
        <mxCell id="x4HcTvrEBQ7sZUDVJvWk-68" value="Mass Rapid Transit (MRT) Station" style="whiteSpace=wrap;html=1;rounded=0;shadow=0;comic=0;strokeWidth=2;fontFamily=Verdana;align=center;fontSize=12;fontStyle=1;strokeColor=none;" parent="1" vertex="1">
          <mxGeometry x="548" y="616" width="80" height="50" as="geometry" />
        </mxCell>
        <mxCell id="x4HcTvrEBQ7sZUDVJvWk-69" value="Bus interchange/stop" style="whiteSpace=wrap;html=1;rounded=0;shadow=0;comic=0;strokeWidth=2;fontFamily=Verdana;align=center;fontSize=12;fontStyle=1;strokeColor=none;" parent="1" vertex="1">
          <mxGeometry x="653" y="616" width="80" height="50" as="geometry" />
        </mxCell>
        <mxCell id="x4HcTvrEBQ7sZUDVJvWk-73" value="" style="endArrow=none;html=1;rounded=0;exitX=0.5;exitY=0;exitDx=0;exitDy=0;entryX=0.5;entryY=1;entryDx=0;entryDy=0;edgeStyle=orthogonalEdgeStyle;" parent="1" source="x4HcTvrEBQ7sZUDVJvWk-63" target="x4HcTvrEBQ7sZUDVJvWk-7" edge="1">
          <mxGeometry width="50" height="50" relative="1" as="geometry">
            <mxPoint x="648" y="416" as="sourcePoint" />
            <mxPoint x="593" y="356" as="targetPoint" />
          </mxGeometry>
        </mxCell>
        <mxCell id="x4HcTvrEBQ7sZUDVJvWk-74" value="" style="endArrow=none;html=1;rounded=0;exitX=0.5;exitY=1;exitDx=0;exitDy=0;entryX=0.5;entryY=0;entryDx=0;entryDy=0;edgeStyle=orthogonalEdgeStyle;" parent="1" source="x4HcTvrEBQ7sZUDVJvWk-7" target="x4HcTvrEBQ7sZUDVJvWk-64" edge="1">
          <mxGeometry width="50" height="50" relative="1" as="geometry">
            <mxPoint x="636" y="496" as="sourcePoint" />
            <mxPoint x="648" y="466" as="targetPoint" />
          </mxGeometry>
        </mxCell>
        <mxCell id="x4HcTvrEBQ7sZUDVJvWk-75" value="" style="endArrow=none;html=1;rounded=0;exitX=0.5;exitY=1;exitDx=0;exitDy=0;entryX=0.5;entryY=0;entryDx=0;entryDy=0;edgeStyle=orthogonalEdgeStyle;" parent="1" source="x4HcTvrEBQ7sZUDVJvWk-7" target="x4HcTvrEBQ7sZUDVJvWk-65" edge="1">
          <mxGeometry width="50" height="50" relative="1" as="geometry">
            <mxPoint x="648" y="466" as="sourcePoint" />
            <mxPoint x="731" y="496" as="targetPoint" />
          </mxGeometry>
        </mxCell>
        <mxCell id="x4HcTvrEBQ7sZUDVJvWk-76" value="daily mean&lt;div&gt;&amp;lt;25°C&lt;/div&gt;" style="whiteSpace=wrap;html=1;rounded=0;shadow=0;comic=0;strokeWidth=2;fontFamily=Verdana;align=center;fontSize=12;fontStyle=1;strokeColor=none;" parent="1" vertex="1">
          <mxGeometry x="765" y="625" width="80" height="50" as="geometry" />
        </mxCell>
        <mxCell id="x4HcTvrEBQ7sZUDVJvWk-77" value="" style="endArrow=none;html=1;rounded=0;exitX=0.5;exitY=1;exitDx=0;exitDy=0;entryX=0.5;entryY=0;entryDx=0;entryDy=0;edgeStyle=orthogonalEdgeStyle;" parent="1" source="x4HcTvrEBQ7sZUDVJvWk-65" target="x4HcTvrEBQ7sZUDVJvWk-76" edge="1">
          <mxGeometry width="50" height="50" relative="1" as="geometry">
            <mxPoint x="648" y="466" as="sourcePoint" />
            <mxPoint x="831" y="496" as="targetPoint" />
          </mxGeometry>
        </mxCell>
        <mxCell id="x4HcTvrEBQ7sZUDVJvWk-78" value="" style="endArrow=none;html=1;rounded=0;exitX=0.5;exitY=0;exitDx=0;exitDy=0;entryX=0.5;entryY=1;entryDx=0;entryDy=0;edgeStyle=orthogonalEdgeStyle;" parent="1" source="x4HcTvrEBQ7sZUDVJvWk-68" target="x4HcTvrEBQ7sZUDVJvWk-66" edge="1">
          <mxGeometry width="50" height="50" relative="1" as="geometry">
            <mxPoint x="508" y="636" as="sourcePoint" />
            <mxPoint x="520" y="606" as="targetPoint" />
          </mxGeometry>
        </mxCell>
        <mxCell id="x4HcTvrEBQ7sZUDVJvWk-79" value="" style="endArrow=none;html=1;rounded=0;exitX=0.5;exitY=1;exitDx=0;exitDy=0;entryX=0.5;entryY=0;entryDx=0;entryDy=0;edgeStyle=orthogonalEdgeStyle;" parent="1" source="x4HcTvrEBQ7sZUDVJvWk-66" target="x4HcTvrEBQ7sZUDVJvWk-69" edge="1">
          <mxGeometry width="50" height="50" relative="1" as="geometry">
            <mxPoint x="520" y="606" as="sourcePoint" />
            <mxPoint x="603" y="636" as="targetPoint" />
          </mxGeometry>
        </mxCell>
        <mxCell id="x4HcTvrEBQ7sZUDVJvWk-81" value="&lt;div&gt;daily mean&lt;/div&gt;&amp;lt;40dB" style="whiteSpace=wrap;html=1;rounded=0;shadow=0;comic=0;strokeWidth=2;fontFamily=Verdana;align=center;fontSize=12;fontStyle=1;strokeColor=none;" parent="1" vertex="1">
          <mxGeometry x="845" y="622" width="86.5" height="50" as="geometry" />
        </mxCell>
        <mxCell id="x4HcTvrEBQ7sZUDVJvWk-82" value="" style="endArrow=none;html=1;rounded=0;exitX=0.5;exitY=1;exitDx=0;exitDy=0;entryX=0.5;entryY=0;entryDx=0;entryDy=0;edgeStyle=orthogonalEdgeStyle;" parent="1" source="x4HcTvrEBQ7sZUDVJvWk-63" target="x4HcTvrEBQ7sZUDVJvWk-81" edge="1">
          <mxGeometry width="50" height="50" relative="1" as="geometry">
            <mxPoint x="741" y="536" as="sourcePoint" />
            <mxPoint x="751" y="496" as="targetPoint" />
          </mxGeometry>
        </mxCell>
        <mxCell id="x4HcTvrEBQ7sZUDVJvWk-83" value="" style="endArrow=none;html=1;rounded=0;exitX=0.5;exitY=1;exitDx=0;exitDy=0;entryX=0.5;entryY=0;entryDx=0;entryDy=0;edgeStyle=orthogonalEdgeStyle;" parent="1" source="x4HcTvrEBQ7sZUDVJvWk-5" target="x4HcTvrEBQ7sZUDVJvWk-66" edge="1">
          <mxGeometry width="50" height="50" relative="1" as="geometry">
            <mxPoint x="528" y="546" as="sourcePoint" />
            <mxPoint x="624" y="636" as="targetPoint" />
          </mxGeometry>
        </mxCell>
        <mxCell id="x4HcTvrEBQ7sZUDVJvWk-84" value="" style="endArrow=none;html=1;rounded=0;exitX=0.5;exitY=1;exitDx=0;exitDy=0;edgeStyle=orthogonalEdgeStyle;" parent="1" source="x4HcTvrEBQ7sZUDVJvWk-5" target="x4HcTvrEBQ7sZUDVJvWk-67" edge="1">
          <mxGeometry width="50" height="50" relative="1" as="geometry">
            <mxPoint x="534" y="466" as="sourcePoint" />
            <mxPoint x="528" y="496" as="targetPoint" />
          </mxGeometry>
        </mxCell>
        <mxCell id="x4HcTvrEBQ7sZUDVJvWk-85" value="Supermarket" style="whiteSpace=wrap;html=1;rounded=0;shadow=0;comic=0;strokeWidth=2;fontFamily=Verdana;align=center;fontSize=12;fontStyle=1;strokeColor=none;" parent="1" vertex="1">
          <mxGeometry x="380" y="616" width="80" height="50" as="geometry" />
        </mxCell>
        <mxCell id="x4HcTvrEBQ7sZUDVJvWk-86" value="Hawker" style="whiteSpace=wrap;html=1;rounded=0;shadow=0;comic=0;strokeWidth=2;fontFamily=Verdana;align=center;fontSize=12;fontStyle=1;strokeColor=none;" parent="1" vertex="1">
          <mxGeometry x="468" y="616" width="80" height="50" as="geometry" />
        </mxCell>
        <mxCell id="x4HcTvrEBQ7sZUDVJvWk-87" value="" style="endArrow=none;html=1;rounded=0;exitX=0.5;exitY=0;exitDx=0;exitDy=0;entryX=0.5;entryY=1;entryDx=0;entryDy=0;edgeStyle=orthogonalEdgeStyle;" parent="1" source="x4HcTvrEBQ7sZUDVJvWk-85" target="x4HcTvrEBQ7sZUDVJvWk-67" edge="1">
          <mxGeometry width="50" height="50" relative="1" as="geometry">
            <mxPoint x="530" y="636" as="sourcePoint" />
            <mxPoint x="598" y="546" as="targetPoint" />
          </mxGeometry>
        </mxCell>
        <mxCell id="x4HcTvrEBQ7sZUDVJvWk-88" value="" style="endArrow=none;html=1;rounded=0;exitX=0.5;exitY=0;exitDx=0;exitDy=0;entryX=0.5;entryY=1;entryDx=0;entryDy=0;edgeStyle=orthogonalEdgeStyle;" parent="1" source="x4HcTvrEBQ7sZUDVJvWk-86" target="x4HcTvrEBQ7sZUDVJvWk-67" edge="1">
          <mxGeometry width="50" height="50" relative="1" as="geometry">
            <mxPoint x="434" y="636" as="sourcePoint" />
            <mxPoint x="488" y="546" as="targetPoint" />
          </mxGeometry>
        </mxCell>
        <mxCell id="x4HcTvrEBQ7sZUDVJvWk-89" value="minimize distance to healthcare facilities" style="whiteSpace=wrap;html=1;rounded=0;shadow=0;comic=0;strokeWidth=2;fontFamily=Verdana;align=center;fontSize=12;fontStyle=1;strokeColor=none;" parent="1" vertex="1">
          <mxGeometry x="336" y="486" width="80" height="50" as="geometry" />
        </mxCell>
        <mxCell id="x4HcTvrEBQ7sZUDVJvWk-90" value="" style="endArrow=none;html=1;rounded=0;exitX=0.5;exitY=1;exitDx=0;exitDy=0;edgeStyle=orthogonalEdgeStyle;entryX=0.5;entryY=0;entryDx=0;entryDy=0;" parent="1" source="x4HcTvrEBQ7sZUDVJvWk-5" target="x4HcTvrEBQ7sZUDVJvWk-89" edge="1">
          <mxGeometry width="50" height="50" relative="1" as="geometry">
            <mxPoint x="534" y="466" as="sourcePoint" />
            <mxPoint x="488" y="496" as="targetPoint" />
          </mxGeometry>
        </mxCell>
        <mxCell id="x4HcTvrEBQ7sZUDVJvWk-91" value="Clinics" style="whiteSpace=wrap;html=1;rounded=0;shadow=0;comic=0;strokeWidth=2;fontFamily=Verdana;align=center;fontSize=12;fontStyle=1;strokeColor=none;" parent="1" vertex="1">
          <mxGeometry x="286" y="616" width="80" height="50" as="geometry" />
        </mxCell>
        <mxCell id="x4HcTvrEBQ7sZUDVJvWk-92" value="Hospital" style="whiteSpace=wrap;html=1;rounded=0;shadow=0;comic=0;strokeWidth=2;fontFamily=Verdana;align=center;fontSize=12;fontStyle=1;strokeColor=none;" parent="1" vertex="1">
          <mxGeometry x="214" y="616" width="80" height="50" as="geometry" />
        </mxCell>
        <mxCell id="x4HcTvrEBQ7sZUDVJvWk-93" value="" style="endArrow=none;html=1;rounded=0;exitX=0.5;exitY=0;exitDx=0;exitDy=0;entryX=0.5;entryY=1;entryDx=0;entryDy=0;edgeStyle=orthogonalEdgeStyle;" parent="1" source="x4HcTvrEBQ7sZUDVJvWk-91" target="x4HcTvrEBQ7sZUDVJvWk-89" edge="1">
          <mxGeometry width="50" height="50" relative="1" as="geometry">
            <mxPoint x="354" y="636" as="sourcePoint" />
            <mxPoint x="488" y="546" as="targetPoint" />
          </mxGeometry>
        </mxCell>
        <mxCell id="x4HcTvrEBQ7sZUDVJvWk-94" value="" style="endArrow=none;html=1;rounded=0;exitX=0.5;exitY=0;exitDx=0;exitDy=0;entryX=0.5;entryY=1;entryDx=0;entryDy=0;edgeStyle=orthogonalEdgeStyle;" parent="1" source="x4HcTvrEBQ7sZUDVJvWk-92" target="x4HcTvrEBQ7sZUDVJvWk-89" edge="1">
          <mxGeometry width="50" height="50" relative="1" as="geometry">
            <mxPoint x="326" y="626" as="sourcePoint" />
            <mxPoint x="386" y="546" as="targetPoint" />
          </mxGeometry>
        </mxCell>
        <mxCell id="x4HcTvrEBQ7sZUDVJvWk-95" value="Rent Out Property" style="whiteSpace=wrap;html=1;rounded=0;shadow=0;comic=0;strokeWidth=2;fontFamily=Verdana;align=center;fontSize=12;fontStyle=1;strokeColor=none;" parent="1" vertex="1">
          <mxGeometry x="871.5" y="400" width="200" height="50" as="geometry" />
        </mxCell>
        <mxCell id="x4HcTvrEBQ7sZUDVJvWk-97" value="&lt;div&gt;&lt;span style=&quot;background-color: transparent; color: light-dark(rgb(0, 0, 0), rgb(255, 255, 255));&quot;&gt;Maximize Rental Fee&lt;/span&gt;&lt;/div&gt;" style="whiteSpace=wrap;html=1;rounded=0;shadow=0;comic=0;strokeWidth=2;fontFamily=Verdana;align=center;fontSize=12;fontStyle=1;strokeColor=none;" parent="1" vertex="1">
          <mxGeometry x="913" y="491" width="80" height="50" as="geometry" />
        </mxCell>
        <mxCell id="x4HcTvrEBQ7sZUDVJvWk-98" value="Increase Number of room rented" style="whiteSpace=wrap;html=1;rounded=0;shadow=0;comic=0;strokeWidth=2;fontFamily=Verdana;align=center;fontSize=12;fontStyle=1;strokeColor=none;" parent="1" vertex="1">
          <mxGeometry x="996.5" y="616" width="100" height="50" as="geometry" />
        </mxCell>
        <mxCell id="x4HcTvrEBQ7sZUDVJvWk-102" value="&lt;div&gt;&lt;span style=&quot;background-color: transparent; color: light-dark(rgb(0, 0, 0), rgb(255, 255, 255));&quot;&gt;Maximize Tenant Count&lt;/span&gt;&lt;/div&gt;" style="whiteSpace=wrap;html=1;rounded=0;shadow=0;comic=0;strokeWidth=2;fontFamily=Verdana;align=center;fontSize=12;fontStyle=1;strokeColor=none;" parent="1" vertex="1">
          <mxGeometry x="993" y="491" width="80" height="50" as="geometry" />
        </mxCell>
        <mxCell id="x4HcTvrEBQ7sZUDVJvWk-104" value="&lt;div&gt;&lt;span style=&quot;background-color: transparent; color: light-dark(rgb(0, 0, 0), rgb(255, 255, 255));&quot;&gt;Reduce maintenance&amp;nbsp;&lt;/span&gt;&lt;span style=&quot;background-color: transparent; color: light-dark(rgb(0, 0, 0), rgb(255, 255, 255));&quot;&gt;cost&lt;/span&gt;&lt;/div&gt;" style="whiteSpace=wrap;html=1;rounded=0;shadow=0;comic=0;strokeWidth=2;fontFamily=Verdana;align=center;fontSize=12;fontStyle=1;strokeColor=none;" parent="1" vertex="1">
          <mxGeometry x="879.75" y="296" width="183.5" height="50" as="geometry" />
        </mxCell>
        <mxCell id="x4HcTvrEBQ7sZUDVJvWk-106" value="&lt;div&gt;&lt;span style=&quot;background-color: transparent; color: light-dark(rgb(0, 0, 0), rgb(255, 255, 255));&quot;&gt;4 to 8 tenants&lt;/span&gt;&lt;/div&gt;" style="whiteSpace=wrap;html=1;rounded=0;shadow=0;comic=0;strokeWidth=2;fontFamily=Verdana;align=center;fontSize=12;fontStyle=1;strokeColor=none;" parent="1" vertex="1">
          <mxGeometry x="931.5" y="616" width="80" height="50" as="geometry" />
        </mxCell>
        <mxCell id="x4HcTvrEBQ7sZUDVJvWk-107" value="" style="endArrow=none;html=1;rounded=0;edgeStyle=orthogonalEdgeStyle;entryX=0.5;entryY=1;entryDx=0;entryDy=0;exitX=0.5;exitY=0;exitDx=0;exitDy=0;" parent="1" source="x4HcTvrEBQ7sZUDVJvWk-106" target="x4HcTvrEBQ7sZUDVJvWk-102" edge="1">
          <mxGeometry width="50" height="50" relative="1" as="geometry">
            <mxPoint x="1128.75" y="496" as="sourcePoint" />
            <mxPoint x="968.75" y="436" as="targetPoint" />
          </mxGeometry>
        </mxCell>
        <mxCell id="x4HcTvrEBQ7sZUDVJvWk-109" value="" style="endArrow=none;html=1;rounded=0;edgeStyle=orthogonalEdgeStyle;exitX=0.5;exitY=0;exitDx=0;exitDy=0;entryX=0.5;entryY=1;entryDx=0;entryDy=0;" parent="1" source="x4HcTvrEBQ7sZUDVJvWk-98" target="x4HcTvrEBQ7sZUDVJvWk-102" edge="1">
          <mxGeometry width="50" height="50" relative="1" as="geometry">
            <mxPoint x="1013.75" y="396" as="sourcePoint" />
            <mxPoint x="1203.75" y="476" as="targetPoint" />
          </mxGeometry>
        </mxCell>
        <mxCell id="x4HcTvrEBQ7sZUDVJvWk-113" value="Maximize Flat Type" style="whiteSpace=wrap;html=1;rounded=0;shadow=0;comic=0;strokeWidth=2;fontFamily=Verdana;align=center;fontSize=12;fontStyle=1;strokeColor=none;" parent="1" vertex="1">
          <mxGeometry x="54" y="486" width="80" height="50" as="geometry" />
        </mxCell>
        <mxCell id="x4HcTvrEBQ7sZUDVJvWk-114" value="" style="endArrow=none;html=1;rounded=0;exitX=0.5;exitY=0;exitDx=0;exitDy=0;entryX=0.5;entryY=1;entryDx=0;entryDy=0;edgeStyle=orthogonalEdgeStyle;" parent="1" source="x4HcTvrEBQ7sZUDVJvWk-113" target="x4HcTvrEBQ7sZUDVJvWk-34" edge="1">
          <mxGeometry width="50" height="50" relative="1" as="geometry">
            <mxPoint x="246" y="626" as="sourcePoint" />
            <mxPoint x="386" y="546" as="targetPoint" />
          </mxGeometry>
        </mxCell>
        <mxCell id="x4HcTvrEBQ7sZUDVJvWk-115" value="Maximize Remaining Lease Period" style="whiteSpace=wrap;html=1;rounded=0;shadow=0;comic=0;strokeWidth=2;fontFamily=Verdana;align=center;fontSize=12;fontStyle=1;strokeColor=none;" parent="1" vertex="1">
          <mxGeometry x="176" y="486" width="80" height="50" as="geometry" />
        </mxCell>
        <mxCell id="x4HcTvrEBQ7sZUDVJvWk-116" value="" style="endArrow=none;html=1;rounded=0;exitX=0.5;exitY=0;exitDx=0;exitDy=0;entryX=0.5;entryY=1;entryDx=0;entryDy=0;edgeStyle=orthogonalEdgeStyle;" parent="1" source="x4HcTvrEBQ7sZUDVJvWk-115" target="x4HcTvrEBQ7sZUDVJvWk-34" edge="1">
          <mxGeometry width="50" height="50" relative="1" as="geometry">
            <mxPoint x="236" y="496" as="sourcePoint" />
            <mxPoint x="196" y="466" as="targetPoint" />
          </mxGeometry>
        </mxCell>
        <mxCell id="x4HcTvrEBQ7sZUDVJvWk-117" value="&amp;gt;30 Years" style="whiteSpace=wrap;html=1;rounded=0;shadow=0;comic=0;strokeWidth=2;fontFamily=Verdana;align=center;fontSize=12;fontStyle=1;strokeColor=none;" parent="1" vertex="1">
          <mxGeometry x="134" y="616" width="80" height="50" as="geometry" />
        </mxCell>
        <mxCell id="x4HcTvrEBQ7sZUDVJvWk-118" value="5 Room Flat" style="whiteSpace=wrap;html=1;rounded=0;shadow=0;comic=0;strokeWidth=2;fontFamily=Verdana;align=center;fontSize=12;fontStyle=1;strokeColor=none;" parent="1" vertex="1">
          <mxGeometry x="68" y="616" width="80" height="50" as="geometry" />
        </mxCell>
        <mxCell id="x4HcTvrEBQ7sZUDVJvWk-119" value="" style="endArrow=none;html=1;rounded=0;exitX=0.5;exitY=0;exitDx=0;exitDy=0;entryX=0.5;entryY=1;entryDx=0;entryDy=0;edgeStyle=orthogonalEdgeStyle;" parent="1" source="x4HcTvrEBQ7sZUDVJvWk-117" target="x4HcTvrEBQ7sZUDVJvWk-115" edge="1">
          <mxGeometry width="50" height="50" relative="1" as="geometry">
            <mxPoint x="246" y="626" as="sourcePoint" />
            <mxPoint x="386" y="546" as="targetPoint" />
          </mxGeometry>
        </mxCell>
        <mxCell id="x4HcTvrEBQ7sZUDVJvWk-120" value="" style="endArrow=none;html=1;rounded=0;exitX=0.5;exitY=0;exitDx=0;exitDy=0;entryX=0.5;entryY=1;entryDx=0;entryDy=0;edgeStyle=orthogonalEdgeStyle;" parent="1" source="x4HcTvrEBQ7sZUDVJvWk-118" target="x4HcTvrEBQ7sZUDVJvWk-113" edge="1">
          <mxGeometry width="50" height="50" relative="1" as="geometry">
            <mxPoint x="76" y="626" as="sourcePoint" />
            <mxPoint x="126" y="546" as="targetPoint" />
          </mxGeometry>
        </mxCell>
        <mxCell id="x4HcTvrEBQ7sZUDVJvWk-121" value="4 Room Flat" style="whiteSpace=wrap;html=1;rounded=0;shadow=0;comic=0;strokeWidth=2;fontFamily=Verdana;align=center;fontSize=12;fontStyle=1;strokeColor=none;" parent="1" vertex="1">
          <mxGeometry x="3" y="616" width="74" height="50" as="geometry" />
        </mxCell>
        <mxCell id="x4HcTvrEBQ7sZUDVJvWk-122" value="" style="endArrow=none;html=1;rounded=0;exitX=0.5;exitY=0;exitDx=0;exitDy=0;entryX=0.5;entryY=1;entryDx=0;entryDy=0;edgeStyle=orthogonalEdgeStyle;" parent="1" source="x4HcTvrEBQ7sZUDVJvWk-121" target="x4HcTvrEBQ7sZUDVJvWk-113" edge="1">
          <mxGeometry width="50" height="50" relative="1" as="geometry">
            <mxPoint x="86" y="616" as="sourcePoint" />
            <mxPoint x="104" y="546" as="targetPoint" />
          </mxGeometry>
        </mxCell>
        <mxCell id="x4HcTvrEBQ7sZUDVJvWk-130" value="" style="endArrow=none;html=1;rounded=0;exitX=0.5;exitY=0;exitDx=0;exitDy=0;entryX=0.5;entryY=1;entryDx=0;entryDy=0;edgeStyle=orthogonalEdgeStyle;" parent="1" source="x4HcTvrEBQ7sZUDVJvWk-104" target="6257edae8c83ed4a-1" edge="1">
          <mxGeometry width="50" height="50" relative="1" as="geometry">
            <mxPoint x="866" y="306" as="sourcePoint" />
            <mxPoint x="716" y="246" as="targetPoint" />
          </mxGeometry>
        </mxCell>
        <mxCell id="x4HcTvrEBQ7sZUDVJvWk-131" value="" style="endArrow=none;html=1;rounded=0;exitX=0.5;exitY=0;exitDx=0;exitDy=0;entryX=0.5;entryY=1;entryDx=0;entryDy=0;edgeStyle=orthogonalEdgeStyle;" parent="1" source="x4HcTvrEBQ7sZUDVJvWk-95" target="x4HcTvrEBQ7sZUDVJvWk-104" edge="1">
          <mxGeometry width="50" height="50" relative="1" as="geometry">
            <mxPoint x="1044.75" y="311" as="sourcePoint" />
            <mxPoint x="616.75" y="251" as="targetPoint" />
          </mxGeometry>
        </mxCell>
        <mxCell id="x4HcTvrEBQ7sZUDVJvWk-132" value="" style="endArrow=none;html=1;rounded=0;edgeStyle=orthogonalEdgeStyle;entryX=0.5;entryY=1;entryDx=0;entryDy=0;exitX=0.5;exitY=0;exitDx=0;exitDy=0;" parent="1" source="x4HcTvrEBQ7sZUDVJvWk-97" target="x4HcTvrEBQ7sZUDVJvWk-95" edge="1">
          <mxGeometry width="50" height="50" relative="1" as="geometry">
            <mxPoint x="996.75" y="631" as="sourcePoint" />
            <mxPoint x="1086.75" y="551" as="targetPoint" />
          </mxGeometry>
        </mxCell>
        <mxCell id="x4HcTvrEBQ7sZUDVJvWk-133" value="" style="endArrow=none;html=1;rounded=0;edgeStyle=orthogonalEdgeStyle;entryX=0.5;entryY=1;entryDx=0;entryDy=0;exitX=0.5;exitY=0;exitDx=0;exitDy=0;" parent="1" source="x4HcTvrEBQ7sZUDVJvWk-102" target="x4HcTvrEBQ7sZUDVJvWk-95" edge="1">
          <mxGeometry width="50" height="50" relative="1" as="geometry">
            <mxPoint x="1006.75" y="501" as="sourcePoint" />
            <mxPoint x="1044.75" y="461" as="targetPoint" />
          </mxGeometry>
        </mxCell>
        <mxCell id="KxJncgnTLOfBylVvL6hN-4" value="Maximize Value from HDB Purchase" style="whiteSpace=wrap;html=1;rounded=0;shadow=0;comic=0;strokeWidth=2;fontFamily=Verdana;align=center;fontSize=12;fontStyle=1;strokeColor=none;" vertex="1" parent="1">
          <mxGeometry x="1524" y="173" width="200" height="50" as="geometry" />
        </mxCell>
        <mxCell id="KxJncgnTLOfBylVvL6hN-71" style="rounded=0;orthogonalLoop=1;jettySize=auto;html=1;exitX=0.5;exitY=0;exitDx=0;exitDy=0;entryX=1;entryY=0.5;entryDx=0;entryDy=0;" edge="1" parent="1" source="KxJncgnTLOfBylVvL6hN-5" target="KxJncgnTLOfBylVvL6hN-4">
          <mxGeometry relative="1" as="geometry" />
        </mxCell>
        <mxCell id="KxJncgnTLOfBylVvL6hN-5" value="Minimize incurred cost" style="whiteSpace=wrap;html=1;rounded=0;shadow=0;comic=0;strokeWidth=2;fontFamily=Verdana;align=center;fontSize=12;fontStyle=1;strokeColor=none;" vertex="1" parent="1">
          <mxGeometry x="1684" y="273" width="200" height="50" as="geometry" />
        </mxCell>
        <mxCell id="KxJncgnTLOfBylVvL6hN-52" value="&lt;div&gt;&lt;span style=&quot;background-color: transparent; color: light-dark(rgb(0, 0, 0), rgb(255, 255, 255));&quot;&gt;Maximize property value&lt;/span&gt;&lt;/div&gt;" style="whiteSpace=wrap;html=1;rounded=0;shadow=0;comic=0;strokeWidth=2;fontFamily=Verdana;align=center;fontSize=12;fontStyle=1;strokeColor=none;" vertex="1" parent="1">
          <mxGeometry x="1354" y="273" width="183.5" height="50" as="geometry" />
        </mxCell>
        <mxCell id="KxJncgnTLOfBylVvL6hN-70" value="" style="endArrow=classic;html=1;rounded=0;entryX=0;entryY=0.5;entryDx=0;entryDy=0;exitX=0.5;exitY=0;exitDx=0;exitDy=0;" edge="1" parent="1" source="KxJncgnTLOfBylVvL6hN-52" target="KxJncgnTLOfBylVvL6hN-4">
          <mxGeometry width="50" height="50" relative="1" as="geometry">
            <mxPoint x="1256" y="283" as="sourcePoint" />
            <mxPoint x="1644" y="383" as="targetPoint" />
          </mxGeometry>
        </mxCell>
        <mxCell id="KxJncgnTLOfBylVvL6hN-75" style="shape=connector;rounded=0;orthogonalLoop=1;jettySize=auto;html=1;exitX=0.5;exitY=0;exitDx=0;exitDy=0;entryX=0.25;entryY=1;entryDx=0;entryDy=0;strokeColor=default;align=center;verticalAlign=middle;fontFamily=Helvetica;fontSize=11;fontColor=default;labelBackgroundColor=default;endArrow=classic;" edge="1" parent="1" source="KxJncgnTLOfBylVvL6hN-73" target="KxJncgnTLOfBylVvL6hN-5">
          <mxGeometry relative="1" as="geometry" />
        </mxCell>
        <mxCell id="KxJncgnTLOfBylVvL6hN-73" value="apply for government subsidises" style="whiteSpace=wrap;html=1;rounded=0;shadow=0;comic=0;strokeWidth=2;fontFamily=Verdana;align=center;fontSize=12;fontStyle=1;strokeColor=none;" vertex="1" parent="1">
          <mxGeometry x="1604" y="383" width="200" height="50" as="geometry" />
        </mxCell>
        <mxCell id="KxJncgnTLOfBylVvL6hN-76" style="shape=connector;rounded=0;orthogonalLoop=1;jettySize=auto;html=1;exitX=0.5;exitY=0;exitDx=0;exitDy=0;strokeColor=default;align=center;verticalAlign=middle;fontFamily=Helvetica;fontSize=11;fontColor=default;labelBackgroundColor=default;endArrow=classic;entryX=0.75;entryY=1;entryDx=0;entryDy=0;" edge="1" parent="1" source="KxJncgnTLOfBylVvL6hN-74" target="KxJncgnTLOfBylVvL6hN-5">
          <mxGeometry relative="1" as="geometry">
            <mxPoint x="1784" y="313" as="targetPoint" />
          </mxGeometry>
        </mxCell>
        <mxCell id="KxJncgnTLOfBylVvL6hN-74" value="generate income from property to offset property expenses" style="whiteSpace=wrap;html=1;rounded=0;shadow=0;comic=0;strokeWidth=2;fontFamily=Verdana;align=center;fontSize=12;fontStyle=1;strokeColor=none;" vertex="1" parent="1">
          <mxGeometry x="1824" y="383" width="200" height="50" as="geometry" />
        </mxCell>
        <mxCell id="KxJncgnTLOfBylVvL6hN-81" style="shape=connector;rounded=0;orthogonalLoop=1;jettySize=auto;html=1;exitX=0.5;exitY=0;exitDx=0;exitDy=0;entryX=0.25;entryY=1;entryDx=0;entryDy=0;strokeColor=default;align=center;verticalAlign=middle;fontFamily=Helvetica;fontSize=11;fontColor=default;labelBackgroundColor=default;endArrow=classic;" edge="1" parent="1" source="KxJncgnTLOfBylVvL6hN-79" target="KxJncgnTLOfBylVvL6hN-52">
          <mxGeometry relative="1" as="geometry" />
        </mxCell>
        <mxCell id="KxJncgnTLOfBylVvL6hN-85" style="shape=connector;rounded=0;orthogonalLoop=1;jettySize=auto;html=1;exitX=0;exitY=0.5;exitDx=0;exitDy=0;strokeColor=default;align=center;verticalAlign=middle;fontFamily=Helvetica;fontSize=11;fontColor=default;labelBackgroundColor=default;endArrow=classic;entryX=1;entryY=0.5;entryDx=0;entryDy=0;" edge="1" parent="1" source="KxJncgnTLOfBylVvL6hN-83" target="KxJncgnTLOfBylVvL6hN-79">
          <mxGeometry relative="1" as="geometry">
            <mxPoint x="1384" y="473" as="targetPoint" />
          </mxGeometry>
        </mxCell>
        <mxCell id="KxJncgnTLOfBylVvL6hN-79" value="purchase location with high resale demand in centralised locations" style="whiteSpace=wrap;html=1;rounded=0;shadow=0;comic=0;strokeWidth=2;fontFamily=Verdana;align=center;fontSize=12;fontStyle=1;strokeColor=none;" vertex="1" parent="1">
          <mxGeometry x="1204" y="398" width="200" height="50" as="geometry" />
        </mxCell>
        <mxCell id="KxJncgnTLOfBylVvL6hN-86" style="shape=connector;rounded=0;orthogonalLoop=1;jettySize=auto;html=1;exitX=0.75;exitY=0;exitDx=0;exitDy=0;entryX=0.5;entryY=1;entryDx=0;entryDy=0;strokeColor=default;align=center;verticalAlign=middle;fontFamily=Helvetica;fontSize=11;fontColor=default;labelBackgroundColor=default;endArrow=classic;" edge="1" parent="1" source="KxJncgnTLOfBylVvL6hN-80" target="KxJncgnTLOfBylVvL6hN-83">
          <mxGeometry relative="1" as="geometry" />
        </mxCell>
        <mxCell id="KxJncgnTLOfBylVvL6hN-80" value="Monitor the Urban Redevelopment Authority (URA) Master Plan to identify areas with planned MRT lines, malls, or other government projects." style="whiteSpace=wrap;html=1;rounded=0;shadow=0;comic=0;strokeWidth=2;fontFamily=Verdana;align=center;fontSize=12;fontStyle=1;strokeColor=none;" vertex="1" parent="1">
          <mxGeometry x="1234" y="583" width="271.75" height="80" as="geometry" />
        </mxCell>
        <mxCell id="KxJncgnTLOfBylVvL6hN-84" style="shape=connector;rounded=0;orthogonalLoop=1;jettySize=auto;html=1;exitX=0.5;exitY=0;exitDx=0;exitDy=0;entryX=0.689;entryY=1.006;entryDx=0;entryDy=0;strokeColor=default;align=center;verticalAlign=middle;fontFamily=Helvetica;fontSize=11;fontColor=default;labelBackgroundColor=default;endArrow=classic;entryPerimeter=0;" edge="1" parent="1" source="KxJncgnTLOfBylVvL6hN-83" target="KxJncgnTLOfBylVvL6hN-52">
          <mxGeometry relative="1" as="geometry" />
        </mxCell>
        <mxCell id="KxJncgnTLOfBylVvL6hN-83" value="Minimize depreciation&amp;nbsp;" style="whiteSpace=wrap;html=1;rounded=0;shadow=0;comic=0;strokeWidth=2;fontFamily=Verdana;align=center;fontSize=12;fontStyle=1;strokeColor=none;" vertex="1" parent="1">
          <mxGeometry x="1474" y="398" width="104" height="50" as="geometry" />
        </mxCell>
        <mxCell id="KxJncgnTLOfBylVvL6hN-87" style="shape=connector;rounded=0;orthogonalLoop=1;jettySize=auto;html=1;exitX=0.25;exitY=0;exitDx=0;exitDy=0;entryX=0.589;entryY=1.033;entryDx=0;entryDy=0;entryPerimeter=0;strokeColor=default;align=center;verticalAlign=middle;fontFamily=Helvetica;fontSize=11;fontColor=default;labelBackgroundColor=default;endArrow=classic;" edge="1" parent="1" source="KxJncgnTLOfBylVvL6hN-80" target="KxJncgnTLOfBylVvL6hN-79">
          <mxGeometry relative="1" as="geometry" />
        </mxCell>
        <mxCell id="KxJncgnTLOfBylVvL6hN-89" style="shape=connector;rounded=0;orthogonalLoop=1;jettySize=auto;html=1;exitX=0.5;exitY=0;exitDx=0;exitDy=0;entryX=0.5;entryY=1;entryDx=0;entryDy=0;strokeColor=default;align=center;verticalAlign=middle;fontFamily=Helvetica;fontSize=11;fontColor=default;labelBackgroundColor=default;endArrow=classic;" edge="1" parent="1" source="KxJncgnTLOfBylVvL6hN-88" target="KxJncgnTLOfBylVvL6hN-74">
          <mxGeometry relative="1" as="geometry" />
        </mxCell>
        <mxCell id="KxJncgnTLOfBylVvL6hN-88" value="Ensure HDB has surpassed its&amp;nbsp;Minimum Occupation Period (MOP)" style="whiteSpace=wrap;html=1;rounded=0;shadow=0;comic=0;strokeWidth=2;fontFamily=Verdana;align=center;fontSize=12;fontStyle=1;strokeColor=none;" vertex="1" parent="1">
          <mxGeometry x="1774" y="483" width="200" height="50" as="geometry" />
        </mxCell>
        <mxCell id="KxJncgnTLOfBylVvL6hN-92" style="shape=connector;rounded=0;orthogonalLoop=1;jettySize=auto;html=1;exitX=0.5;exitY=0;exitDx=0;exitDy=0;entryX=0.5;entryY=1;entryDx=0;entryDy=0;strokeColor=default;align=center;verticalAlign=middle;fontFamily=Helvetica;fontSize=11;fontColor=default;labelBackgroundColor=default;endArrow=classic;" edge="1" parent="1" source="KxJncgnTLOfBylVvL6hN-90" target="KxJncgnTLOfBylVvL6hN-88">
          <mxGeometry relative="1" as="geometry" />
        </mxCell>
        <mxCell id="KxJncgnTLOfBylVvL6hN-90" value="Do not buy 1 room flat type" style="whiteSpace=wrap;html=1;rounded=0;shadow=0;comic=0;strokeWidth=2;fontFamily=Verdana;align=center;fontSize=12;fontStyle=1;strokeColor=none;" vertex="1" parent="1">
          <mxGeometry x="1874" y="613" width="200" height="50" as="geometry" />
        </mxCell>
        <mxCell id="KxJncgnTLOfBylVvL6hN-98" style="shape=connector;rounded=0;orthogonalLoop=1;jettySize=auto;html=1;exitX=0.25;exitY=0;exitDx=0;exitDy=0;entryX=0.5;entryY=1;entryDx=0;entryDy=0;strokeColor=default;align=center;verticalAlign=middle;fontFamily=Helvetica;fontSize=11;fontColor=default;labelBackgroundColor=default;endArrow=classic;" edge="1" parent="1" source="KxJncgnTLOfBylVvL6hN-93" target="KxJncgnTLOfBylVvL6hN-96">
          <mxGeometry relative="1" as="geometry" />
        </mxCell>
        <mxCell id="KxJncgnTLOfBylVvL6hN-93" value="Rent out rooms to tenants" style="whiteSpace=wrap;html=1;rounded=0;shadow=0;comic=0;strokeWidth=2;fontFamily=Verdana;align=center;fontSize=12;fontStyle=1;strokeColor=none;" vertex="1" parent="1">
          <mxGeometry x="1634" y="613" width="200" height="50" as="geometry" />
        </mxCell>
        <mxCell id="KxJncgnTLOfBylVvL6hN-94" style="shape=connector;rounded=0;orthogonalLoop=1;jettySize=auto;html=1;exitX=0.5;exitY=0;exitDx=0;exitDy=0;entryX=0;entryY=0.5;entryDx=0;entryDy=0;strokeColor=default;align=center;verticalAlign=middle;fontFamily=Helvetica;fontSize=11;fontColor=default;labelBackgroundColor=default;endArrow=classic;" edge="1" parent="1" source="KxJncgnTLOfBylVvL6hN-93" target="KxJncgnTLOfBylVvL6hN-88">
          <mxGeometry relative="1" as="geometry">
            <mxPoint x="1804" y="593" as="sourcePoint" />
            <mxPoint x="1884" y="543" as="targetPoint" />
          </mxGeometry>
        </mxCell>
        <mxCell id="KxJncgnTLOfBylVvL6hN-97" style="shape=connector;rounded=0;orthogonalLoop=1;jettySize=auto;html=1;exitX=0.5;exitY=0;exitDx=0;exitDy=0;entryX=0.75;entryY=1;entryDx=0;entryDy=0;strokeColor=default;align=center;verticalAlign=middle;fontFamily=Helvetica;fontSize=11;fontColor=default;labelBackgroundColor=default;endArrow=classic;" edge="1" parent="1" source="KxJncgnTLOfBylVvL6hN-96" target="KxJncgnTLOfBylVvL6hN-83">
          <mxGeometry relative="1" as="geometry" />
        </mxCell>
        <mxCell id="KxJncgnTLOfBylVvL6hN-96" value="Prioritise maintenance of HDB&amp;nbsp;" style="whiteSpace=wrap;html=1;rounded=0;shadow=0;comic=0;strokeWidth=2;fontFamily=Verdana;align=center;fontSize=12;fontStyle=1;strokeColor=none;" vertex="1" parent="1">
          <mxGeometry x="1554" y="503" width="130" height="50" as="geometry" />
        </mxCell>
      </root>
    </mxGraphModel>
  </diagram>
</mxfile>
